<?xml version="1.0" encoding="utf-8"?>
<svg id="master-artboard" viewBox="0 0 1400 1400" version="1.1" xmlns="http://www.w3.org/2000/svg" x="0px" y="0px" width="1400px" height="1400px" style="enable-background:new 0 0 1400 1400;" xmlns:xlink="http://www.w3.org/1999/xlink">

<path class="st9" d="M735,730.1c0,0-10.5-127.1,19.3-138.1c9.8-3.6,65.9,8.4,89.8,55.4C867.8,694.3,770.1,761.7,735,730.1z" style="fill: rgb(250, 163, 28);" transform="matrix(1, 0, 0, 1, -436.28247993229274, -133.82898157432288)"/><path class="st10" d="M756.4,744.1c0,0-8.6-104.5,15.8-113.5c8.1-3,54.2,6.9,73.8,45.5C865.6,714.7,785.2,770.1,756.4,744.1z" style="fill: rgb(244, 131, 110);" transform="matrix(1, 0, 0, 1, -436.28247993229274, -133.82898157432288)"/><path class="st9" d="M1035.1,720.1c0,0,10.5-127.1-19.3-138.1c-9.8-3.6-65.9,8.4-89.8,55.4C902.2,684.3,1000,751.7,1035.1,720.1z&#10;&#9;&#9;&#9;&#9;" style="fill: rgb(250, 163, 28);" transform="matrix(1, 0, 0, 1, -436.28247993229274, -133.82898157432288)"/><path class="st10" d="M1010.3,734.9c0,0,8.6-104.5-15.8-113.5c-8.1-3-54.2,6.9-73.8,45.5C901,705.5,981.4,760.9,1010.3,734.9z" style="fill: rgb(244, 131, 110);" transform="matrix(1, 0, 0, 1, -436.28247993229274, -133.82898157432288)"/><path class="st12" d="M826.8,883.3c-16.9,19-35.2,259.6,15.9,257.5c31.2-1.3,65.5-0.3,102.9,0.4c57.2,1.2,129.1,10,142.2-51.8&#10;&#9;&#9;&#9;&#9;c8.9-41.8-1.6-80.4-62.5-130.9c-34.5-28.6-50.7-59.5-70.1-81.2C936.7,856.7,897.1,804.2,826.8,883.3z" style="fill: rgb(250, 163, 30);" transform="matrix(1, 0, 0, 1, -436.28247993229274, -133.82898157432288)"/><path class="st13" d="M1101.6,1053.4c-13.9,13.2-23.1,8.2-23.1,8.2c-33.3,2.6-34.6,33.3-21.8,33.3c8.8,0,21.8,2.4,44.3-8.1&#10;&#9;&#9;&#9;&#9;C1103.1,1073.8,1102.9,1062.6,1101.6,1053.4z" style="fill: rgb(218, 140, 39);" transform="matrix(1, 0, 0, 1, -436.28247993229274, -133.82898157432288)"/><path class="st13" d="M997.7,1075.2c-0.9-33.8-15.2-84.7-56.1-109c-40.9-24.4-62.3-10.2-62.3-10.2c-37.9-2.5-51.3,54.3-69.4,95.3&#10;&#9;&#9;&#9;&#9;c2.4,49.5,11.6,90.3,32.8,89.4c31.2-1.3,65.5-0.3,102.9,0.4c24.4,0.5,51.4,2.4,75.4-0.4l0,0&#10;&#9;&#9;&#9;&#9;C1034.9,1125.5,998.6,1109.1,997.7,1075.2z" style="fill: rgb(218, 140, 39);" transform="matrix(1, 0, 0, 1, -436.28247993229274, -133.82898157432288)"/><path class="st9" d="M1090,1069.2c0,41.6-27.6,75.3-61.7,75.3c-34.1,0-66.4,2.9-63.9-18.4c1.6-13.5,51-9.4,36.2-16.9&#10;&#9;&#9;&#9;&#9;c-50.7-25.7-8-116.7,27.7-115.2C1062.3,995.3,1090,1027.6,1090,1069.2z" style="fill: rgb(250, 163, 28);" transform="matrix(1, 0, 0, 1, -436.28247993229274, -133.82898157432288)"/><path class="st13" d="M877.7,923.9c48.7-0.7,103.5,14.8,136.7,25.1c-27.3-25.8-42.1-52.4-59.3-71.7c-3.7-4.1-8.2-9.5-13.7-14.9&#10;&#9;&#9;&#9;&#9;c-29.1-3.5-63.6-5.5-88.2-4c-8.3,6.2-17,14.4-26.3,24.8c-3.2,3.6-6.4,15-9.2,31.2C829.4,919.6,848.4,924.3,877.7,923.9z" style="fill: rgb(218, 140, 39);" transform="matrix(1, 0, 0, 1, -436.28247993229274, -133.82898157432288)"/><path class="st14" d="M846.8,1143.1c-10.7,0-1.3-13.8-4.7-21.8c-3.4-7.8-15.1-1.4-14.1-8.9c0.7-5.7-0.6-11.4-1.4-19.7&#10;&#9;&#9;&#9;&#9;c-0.9-9-1.7-21.7-3.3-33.8c-3.2-23.8-6.1-50.3-6.1-69.1c0-33.9,0-63.9,8.9-89.3c9-25.6,15.7-42.4,27.9-42.4&#10;&#9;&#9;&#9;&#9;c19.5,0,21.1,39.6,24.8,77.2c1.9,19.8,9.4,35.7,9.4,52.4c0,4.7,0.5,12,1,21.3c2.2,34.6,5.8,92.6-7.9,121.5&#10;&#9;&#9;&#9;&#9;C876.2,1141.1,859.6,1143.1,846.8,1143.1z" style="fill: rgb(174, 73, 37);" transform="matrix(1, 0, 0, 1, -436.28247993229274, -133.82898157432288)"/><path class="st12" d="M886.3,987.5c0,22.4,10.4,105.9-6.7,142c-8.2,17.3-53.2,17.4-59,3.8c-5.6-13.1,1.2-22.1-0.6-41.7&#10;&#9;&#9;&#9;&#9;c-2.6-26.6-10.8-73.7-10.8-101.9c0-70.5,21.7-129.9,44.8-129.9C877.1,859.9,886.3,917,886.3,987.5z" style="fill: rgb(250, 163, 30);" transform="matrix(1, 0, 0, 1, -436.28247993229274, -133.82898157432288)"/><path class="st13" d="M854,859.9c-14,0-27.5,21.9-36,54.8c11.9,5.1,30.7,9.6,59.7,9.2c1.8,0,3.6,0,5.4,0&#10;&#9;&#9;&#9;&#9;C878.7,885.6,869.5,859.9,854,859.9z" style="fill: rgb(218, 140, 39);" transform="matrix(1, 0, 0, 1, -436.28247993229274, -133.82898157432288)"/><path class="st14" d="M943.2,1145c-14.3,0-30.9-4.7-35.6-15.3c-13.1-29.2-8.3-87-5.5-121.6c0.8-9.3,4.6-45.8,5.3-50.5&#10;&#9;&#9;&#9;&#9;c6-45,3.2-99.7,32.6-99.7l0.3,0c12.2,0.2,17.7,21,26.3,46.8c8.4,25.6,18.5,51.9,17.8,85.8c-0.4,18.8-4.5,45.7-8.2,69.5&#10;&#9;&#9;&#9;&#9;c-1.9,12.1-3.6,23.5-4.6,32.4c-1,8.3-0.3,14.8,0.4,20.5c0.8,7.5,1.5,14-2,21.7C966.5,1142.3,953.8,1145,943.2,1145z" style="fill: rgb(174, 73, 37);" transform="matrix(1, 0, 0, 1, -436.28247993229274, -133.82898157432288)"/><path class="st12" d="M905.4,986.8c-0.4,22.4-12.5,105.6,3.9,142.1c7.8,17.5,52.8,18.5,58.9,5c5.9-12.9-0.8-22.1,1.5-41.7&#10;&#9;&#9;&#9;&#9;c3.1-26.6,12.2-73.5,12.8-101.7c1.4-70.5-19.2-130.3-42.2-130.7C917.2,859.4,906.8,916.3,905.4,986.8z" style="fill: rgb(250, 163, 30);" transform="matrix(1, 0, 0, 1, -436.28247993229274, -133.82898157432288)"/><path class="st13" d="M949.8,863.5c-5.3-0.7-10.8-1.4-16.4-2c-11.9,6.4-19.6,30.5-23.9,63.9c24.3,2.5,48.7,7.8,69.9,13.4&#10;&#9;&#9;&#9;&#9;C974.3,901.9,963,873.3,949.8,863.5z" style="fill: rgb(218, 140, 39);" transform="matrix(1, 0, 0, 1, -436.28247993229274, -133.82898157432288)"/><path d="M 1056.5 774.799988 A 167 141.699997 0 0 1 889.5 916.499985 A 167 141.699997 0 0 1 722.5 774.799988 A 167 141.699997 0 0 1 889.5 633.099991 A 167 141.699997 0 0 1 1056.5 774.799988 Z" class="st9" style="fill: rgb(250, 163, 28);" transform="matrix(1, 0, 0, 1, -436.28247993229274, -133.82898157432288)"/><defs>
					<path id="SVGID_1_" d="M753.9,737.9c0,0,6.3-9.9,36.5-9.7c30.2,0.3,44.2,33.1,51.6,46.5c4.3,7.7,6.1,9.4-2.5,12&#10;&#9;&#9;&#9;&#9;&#9;&#9;C831,789.3,760.8,814,753.9,737.9z"/>
				</defs><use style="overflow:visible;fill:#FFFFFF;" transform="matrix(1, 0, 0, 1, -436.28247993229274, -133.82898157432288)" xlink:href="#SVGID_1_"/><clipPath id="SVGID_2_">
					<use style="overflow:visible;" xlink:href="#SVGID_1_"/>
				</clipPath><path d="M 836.699989 762.700012 A 36.900002 38.5 0 0 1 799.799988 801.200012 A 36.900002 38.5 0 0 1 762.899986 762.700012 A 36.900002 38.5 0 0 1 799.799988 724.200012 A 36.900002 38.5 0 0 1 836.699989 762.700012 Z" class="st15" style="clip-path: url('#SVGID_2_'); fill: rgb(57, 181, 74);" transform="matrix(1, 0, 0, 1, -436.28247993229274, -133.82898157432288)"/><path d="M 821.199987 763 A 21.4 21.4 0 0 1 799.799988 784.4 A 21.4 21.4 0 0 1 778.399988 763 A 21.4 21.4 0 0 1 799.799988 741.6 A 21.4 21.4 0 0 1 821.199987 763 Z" class="st16" style="clip-path: url('#SVGID_2_'); fill: rgb(60, 36, 21);" transform="matrix(1, 0, 0, 1, -436.28247993229274, -133.82898157432288)"/><path class="st17" d="M798.4,749.6c0,4.4-3.6,8-8,8c-4.4,0-8-3.6-8-8c0-4.4,3.6-8,8-8C794.9,741.6,798.4,745.2,798.4,749.6z" style="clip-path: url('#SVGID_2_'); fill: rgb(255, 255, 255);" transform="matrix(1, 0, 0, 1, -436.28247993229274, -133.82898157432288)"/><path class="st10" d="M907,823.4c-12.4,6.2-13.5,10.2-16.6,10.2c-3.4,0-5-4-16.7-10.2c-5.4-2.9,7.5-11.1,16.7-11.1&#10;&#9;&#9;&#9;&#9;C899.5,812.3,912.5,820.6,907,823.4z" style="fill: rgb(244, 131, 110);" transform="matrix(1, 0, 0, 1, -436.28247993229274, -133.82898157432288)"/><path class="st14" d="M927.5,843.9c-7.7,8.2-15,11.9-21.8,10.9c-8.1-1.1-13.1-8.7-14-10.4v-11h-2.6v10.8&#10;&#9;&#9;&#9;&#9;c-4.6,6.9-10,10.5-15.9,10.9c-11.5,0.7-21.8-11.2-21.9-11.3l-2,1.7c0.4,0.5,10.6,12.2,22.9,12.2c0.4,0,0.8,0,1.2,0&#10;&#9;&#9;&#9;&#9;c6.4-0.4,12.1-4,17-10.7c2.1,3.1,7.1,9.2,15,10.3c7.6,1,15.7-2.9,24-11.7L927.5,843.9z" style="fill: rgb(174, 73, 37);" transform="matrix(1, 0, 0, 1, -436.28247993229274, -133.82898157432288)"/><path class="st14" d="M753.9,737.9c0,0,6.6-7.6,29.1-9.5c22.5-1.9,42.5,17,49,28.4c6.5,11.4,12.1,22.3,13.6,25.5&#10;&#9;&#9;&#9;&#9;c0-4-3.6-14.6-7.4-21.9c-6.7-13-16.3-26.4-34.2-32.2C786.2,722.4,769,723.9,753.9,737.9z" style="fill: rgb(174, 73, 37);" transform="matrix(1, 0, 0, 1, -436.28247993229274, -133.82898157432288)"/><defs>
					<path id="SVGID_3_" d="M1021,737.9c0,0-6.3-9.9-36.5-9.7c-30.2,0.3-44.2,33.1-51.6,46.5c-4.3,7.7-6.1,9.4,2.5,12&#10;&#9;&#9;&#9;&#9;&#9;&#9;C943.9,789.3,1014.1,814,1021,737.9z"/>
				</defs><use style="overflow:visible;fill:#FFFFFF;" transform="matrix(1, 0, 0, 1, -436.28247993229274, -133.82898157432288)" xlink:href="#SVGID_3_"/><clipPath id="SVGID_4_">
					<use style="overflow:visible;" xlink:href="#SVGID_3_"/>
				</clipPath><path d="M 1012.100014 762.700012 A 36.900002 38.5 0 0 1 975.200012 801.200012 A 36.900002 38.5 0 0 1 938.300011 762.700012 A 36.900002 38.5 0 0 1 975.200012 724.200012 A 36.900002 38.5 0 0 1 1012.100014 762.700012 Z" class="st18" style="clip-path: url('#SVGID_4_'); fill: rgb(57, 181, 74);" transform="matrix(1, 0, 0, 1, -436.28247993229274, -133.82898157432288)"/><path d="M 996.600012 763 A 21.4 21.4 0 0 1 975.200012 784.4 A 21.4 21.4 0 0 1 953.800013 763 A 21.4 21.4 0 0 1 975.200012 741.6 A 21.4 21.4 0 0 1 996.600012 763 Z" class="st19" style="clip-path: url('#SVGID_4_'); fill: rgb(60, 36, 21);" transform="matrix(1, 0, 0, 1, -436.28247993229274, -133.82898157432288)"/><path class="st20" d="M976.5,749.6c0,4.4,3.6,8,8,8c4.4,0,8-3.6,8-8c0-4.4-3.6-8-8-8C980.1,741.6,976.5,745.2,976.5,749.6z" style="clip-path: url('#SVGID_4_'); fill: rgb(255, 255, 255);" transform="matrix(1, 0, 0, 1, -436.28247993229274, -133.82898157432288)"/><path class="st14" d="M1021,737.9c0,0-6.6-7.6-29.1-9.5c-22.5-1.9-42.5,17-49,28.4c-6.5,11.4-12.1,22.3-13.6,25.5&#10;&#9;&#9;&#9;&#9;c0-4,3.6-14.6,7.4-21.9c6.7-13,16.3-26.4,34.2-32.2C988.7,722.4,1005.9,723.9,1021,737.9z" style="fill: rgb(174, 73, 37);" transform="matrix(1, 0, 0, 1, -436.28247993229274, -133.82898157432288)"/><path class="st21" d="M778.9,881c-1.5-1.1-3-2.3-4.5-3.5C775.6,878.6,777.1,879.8,778.9,881z" style="fill: none;" transform="matrix(1, 0, 0, 1, -436.28247993229274, -133.82898157432288)"/><path class="st13" d="M1036.9,827.1c-43.8,74.5-100.8,79.9-138,83.7c-34.5,3.5-97.7-14.8-119.9-29.7&#10;&#9;&#9;&#9;&#9;c29.5,22.1,68.2,35.5,110.6,35.5c92.3,0,167-63.4,167-141.7c0-36.4-16.2-69.5-42.7-94.6C1035,711.9,1067.6,774.7,1036.9,827.1z" style="fill: rgb(218, 140, 39);" transform="matrix(1, 0, 0, 1, -436.28247993229274, -133.82898157432288)"/><path class="st13" d="M774.4,877.5c-0.7-0.6-1.2-1.1-1.7-1.4C773.3,876.5,773.8,877,774.4,877.5&#10;&#9;&#9;&#9;&#9;C774.4,877.5,774.4,877.5,774.4,877.5z" style="fill: rgb(218, 140, 39);" transform="matrix(1, 0, 0, 1, -436.28247993229274, -133.82898157432288)"/><path class="st12" d="M940.2,859.8c-2.4,0-4.6,0.5-6.8,1.7c5.6,0.6,11.1,1.3,16.4,2C946.7,861.1,943.5,859.9,940.2,859.8z" style="fill: rgb(250, 163, 30);" transform="matrix(1, 0, 0, 1, -436.28247993229274, -133.82898157432288)"/><path class="st14" d="M1152.2,899.7c0,0,17.4,12.1,49,11.4c0.9-4.5,1.9-9,2.9-13.6C1191.2,899.2,1170.4,901.4,1152.2,899.7z" style="fill: rgb(174, 73, 37);" transform="matrix(1, 0, 0, 1, -436.28247993229274, -133.82898157432288)"/><path class="st14" d="M1152.2,918.5c0,0,16.1,11.1,45.2,11.4c0.8-4.3,1.7-8.7,2.6-13.1C1187.1,918.4,1168.6,920,1152.2,918.5z" style="fill: rgb(174, 73, 37);" transform="matrix(1, 0, 0, 1, -436.28247993229274, -133.82898157432288)"/><path class="st14" d="M1149.2,940.3c0,0,15.6,10.8,43.9,11.4c0.9-4.2,1.7-8.5,2.6-12.9C1182.9,940.3,1165.1,941.7,1149.2,940.3z" style="fill: rgb(174, 73, 37);" transform="matrix(1, 0, 0, 1, -436.28247993229274, -133.82898157432288)"/>
<path class="st11" d="M1078.5,1061.5c0,0,24.4,13.2,53.9-60.1c29.5-73.3-1.3-117.9,25.7-160.4c26.9-42.5,65.4-31,47.5,49.8&#10;&#9;&#9;&#9;&#9;c-18,80.8-19.2,134-66.7,171.5c-47.5,37.6-69.3,32.4-82.1,32.4C1043.8,1094.9,1045.1,1064.1,1078.5,1061.5z" style="fill: rgb(250, 163, 32);" transform="matrix(1, 0, 0, 1, -436.28247993229274, -133.82898157432288)"/></svg>